<?xml version="1.0" standalone="no"?><!DOCTYPE svg PUBLIC "-//W3C//DTD SVG 1.1//EN" "http://www.w3.org/Graphics/SVG/1.1/DTD/svg11.dtd"><svg t="1553073909172" class="icon" style="" viewBox="0 0 1024 1024" version="1.1" xmlns="http://www.w3.org/2000/svg" p-id="21459" xmlns:xlink="http://www.w3.org/1999/xlink" width="64" height="64"><defs><style type="text/css"></style></defs><path d="M958.923354 512.077771c-0.975211 247.078305-201.918779 447.819259-447.88475 447.431425C265.432837 959.122387 63.238788 756.429988 63.580572 510.949065 63.922357 265.014816 266.04068 63.667042 512.119215 64.120366 758.731916 64.575738 959.894472 266.256086 958.923354 512.077771zM511.914554 124.732839c-212.009601-0.311085-385.903094 173.061544-386.93561 385.77518-1.026376 211.507158 172.501796 386.147664 385.170406 387.639644 212.101699 1.487887 388.43066-174.304861 388.151297-386.973472C898.023332 299.146171 723.946668 125.043924 511.914554 124.732839z" p-id="21460"></path><path d="M709.29804 735.182059c-5.046946-3.713578-15.004739-10.022261-23.774473-17.690918-23.559579-20.6012-44.756343-44.439118-70.225411-62.21497-65.367777-45.623084-136.2655-44.26618-200.844308 3.119037-23.234167 17.048281-43.693128 38.163181-64.032362 58.789964-17.978467 18.23327-35.295877 23.153326-49.752124 10.901281-14.512529-12.299117-14.231119-30.755468 2.805906-50.703799 45.685505-53.494355 99.183953-96.439446 169.670308-111.281479 102.732779-21.63167 179.099051 26.701129 245.871827 97.367585 8.366551 8.854669 16.765849 18.237363 22.6253 28.779464C752.209362 711.25409 737.84726 734.289736 709.29804 735.182059z" p-id="21461"></path><path d="M354.362238 400.152633c-28.093848-0.207731-50.479695-23.629163-49.720402-52.021817 0.714268-26.725688 24.110117-49.220005 50.826596-48.869011 25.945929 0.340761 50.108235 24.330128 50.412157 50.050929C406.198837 376.205221 381.726469 400.355247 354.362238 400.152633z" p-id="21462"></path><path d="M678.821935 400.060535c-27.605731-0.341784-50.40397-24.292266-49.663096-52.17122 0.691755-26.015513 24.877597-48.980551 51.231825-48.647977 26.131147 0.329505 49.550533 24.02723 49.678446 50.266847C730.204186 377.372813 706.852338 400.407436 678.821935 400.060535z" p-id="21463"></path></svg>