<?xml version="1.0" standalone="no"?><!DOCTYPE svg PUBLIC "-//W3C//DTD SVG 1.1//EN" "http://www.w3.org/Graphics/SVG/1.1/DTD/svg11.dtd"><svg t="1553073919066" class="icon" style="" viewBox="0 0 1024 1024" version="1.1" xmlns="http://www.w3.org/2000/svg" p-id="21587" xmlns:xlink="http://www.w3.org/1999/xlink" width="64" height="64"><defs><style type="text/css"></style></defs><path d="M455.1 854.9c111.2 0 211.8-45 284.7-117.6 72.9-72.6 118-172.9 118-283.7 0-110.9-45.1-211.2-118-283.8C666.9 97.1 566.3 52.2 455.1 52.2c-111.2 0-211.9 44.9-284.8 117.5-72.9 72.7-117.9 173-117.9 283.8 0 110.8 45 211.1 117.9 283.7s173.5 117.7 284.8 117.7zM229.8 314c0-13.1-10.6-23.6-23.6-23.6-13.1 0-23.7 10.5-23.7 23.6 0 23.3 9.5 44.5 25 59.9 15.4 15.3 36.6 24.8 60.1 24.8 23.4 0 44.7-9.5 60.1-24.8 15.4-15.4 24.9-36.6 24.9-59.9 0-13.1-10.6-23.6-23.6-23.6-13.1 0-23.6 10.5-23.6 23.6 0 10.3-4.3 19.8-11.1 26.6-6.8 6.8-16.3 11-26.7 11-10.5 0-19.8-4.3-26.7-11-6.9-6.8-11.1-16.2-11.1-26.6z m381.4 0c0-13.1-10.6-23.6-23.6-23.6-13.1 0-23.7 10.5-23.7 23.6 0 23.3 9.5 44.5 24.9 59.9 15.4 15.3 36.7 24.8 60.2 24.8 23.4 0 44.7-9.5 60.1-24.8 15.4-15.4 24.9-36.6 24.9-59.9 0-13.1-10.6-23.6-23.6-23.6-13 0-23.6 10.5-23.6 23.6 0 10.3-4.3 19.8-11.1 26.6-6.8 6.8-16.3 11-26.7 11-10.5 0-19.9-4.3-26.7-11-6.9-6.8-11.1-16.2-11.1-26.6zM251.1 664.4c0 13 10.6 23.6 23.6 23.6 13 0 23.6-10.6 23.6-23.6 0-44 17.9-83.9 46.8-112.7v0.1c29-28.8 68.9-46.6 113-46.6 44.1 0 84.1 17.8 113 46.6l1.2 1.1C600.6 581.7 618 621 618 664.4c0 13 10.6 23.6 23.6 23.6 13 0 23.6-10.6 23.6-23.6 0-56.3-22.6-107.3-59.3-144.5-0.4-0.5-0.9-1-1.3-1.5-37.5-37.3-89.3-60.5-146.5-60.5S349.2 481 311.7 518.4v0.2c-37.4 37.4-60.6 88.9-60.6 145.8z m559.8 184.1c-10.2-10.2-10.2-26.7 0-36.9s26.8-10.2 37 0l168.4 167.8c10.2 10.2 10.2 26.7 0 36.9s-26.9 10.2-37 0L810.9 848.5z m-34.1-74.3C694.5 856.3 580.7 907 455.1 907c-125.7 0-239.5-50.8-321.8-132.8C50.9 692.1 0 578.7 0 453.5c0-125.3 50.9-238.7 133.3-320.7C215.6 50.7 329.4 0 455.1 0c125.6 0 239.4 50.7 321.7 132.8 82.3 82.1 133.3 195.4 133.3 320.7 0 125.2-50.9 238.6-133.3 320.7z" p-id="21588"></path></svg>