<?xml version="1.0" encoding="utf-8"?>
<!-- Generator: Adobe Illustrator 22.1.0, SVG Export Plug-In . SVG Version: 6.00 Build 0)  -->
<svg version="1.1" id="图层_1" xmlns="http://www.w3.org/2000/svg" xmlns:xlink="http://www.w3.org/1999/xlink" x="0px" y="0px"
	 viewBox="0 0 1024 1024" style="enable-background:new 0 0 1024 1024;" xml:space="preserve">
<path d="M941.6,498.3L559.8,116.7l-25.6-25.6C522,79,502.5,79,490.3,91.1L82.9,498.3c-12.2,12.2-18.7,28.3-18.6,45.5
	c0.4,34.8,29.4,62.6,64.1,62.6h42v321.9h683.7V606.4H897c16.9,0,32.8-6.6,44.8-18.6c12-12,18.5-27.9,18.5-44.8
	C960.2,526.2,953.6,510.3,941.6,498.3z M567.6,857.1H456.9V655.5h110.7V857.1z M782.9,535.2v321.9H630.8V631.8
	c0-21.8-17.7-39.5-39.5-39.5H433.2c-21.8,0-39.5,17.7-39.5,39.5v225.3H241.6V535.2h-94.9l365.6-365.3l22.8,22.8l342.7,342.5H782.9z"
	/>
</svg>
